<svg width="54" height="55" viewBox="0 0 54 55" fill="none" xmlns="http://www.w3.org/2000/svg">
<path d="M32.9062 22.4375C34.3042 22.4375 35.4375 21.3042 35.4375 19.9062C35.4375 18.5083 34.3042 17.375 32.9062 17.375C31.5083 17.375 30.375 18.5083 30.375 19.9062C30.375 21.3042 31.5083 22.4375 32.9062 22.4375Z" fill="#6C757D"/>
<path d="M21.0938 22.4375C22.4917 22.4375 23.625 21.3042 23.625 19.9062C23.625 18.5083 22.4917 17.375 21.0938 17.375C19.6958 17.375 18.5625 18.5083 18.5625 19.9062C18.5625 21.3042 19.6958 22.4375 21.0938 22.4375Z" fill="#6C757D"/>
<path d="M27 27.5V47.75" stroke="#6C757D" stroke-width="2" stroke-linecap="round" stroke-linejoin="round"/>
<path d="M51.4688 27.5H2.53125" stroke="#6C757D" stroke-width="2" stroke-linecap="round" stroke-linejoin="round"/>
<path d="M43.875 30.875C43.875 35.3505 42.0971 39.6428 38.9324 42.8074C35.7678 45.9721 31.4755 47.75 27 47.75C22.5245 47.75 18.2322 45.9721 15.0676 42.8074C11.9029 39.6428 10.125 35.3505 10.125 30.875V24.125C10.125 19.6495 11.9029 15.3572 15.0676 12.1926C18.2322 9.0279 22.5245 7.25 27 7.25C31.4755 7.25 35.7678 9.0279 38.9324 12.1926C42.0971 15.3572 43.875 19.6495 43.875 24.125V30.875Z" stroke="#6C757D" stroke-width="2" stroke-linecap="round" stroke-linejoin="round"/>
<path d="M48.9165 40.1559L42.8625 36.6543" stroke="#6C757D" stroke-width="2" stroke-linecap="round" stroke-linejoin="round"/>
<path d="M48.9165 14.8438L42.8625 18.3453" stroke="#6C757D" stroke-width="2" stroke-linecap="round" stroke-linejoin="round"/>
<path d="M5.0835 14.8438L11.1374 18.3453" stroke="#6C757D" stroke-width="2" stroke-linecap="round" stroke-linejoin="round"/>
<path d="M5.0835 40.1559L11.1374 36.6543" stroke="#6C757D" stroke-width="2" stroke-linecap="round" stroke-linejoin="round"/>
</svg>
