<svg width="70" height="17" viewBox="0 0 70 17" fill="none" xmlns="http://www.w3.org/2000/svg">
<path d="M7.76001 9.54348C8.10292 9.54348 8.40109 9.67064 8.65454 9.92497C8.90799 10.1793 9.03471 10.4785 9.03471 10.8226C9.03471 11.1816 8.90799 11.4883 8.65454 11.7426C8.416 11.982 8.11782 12.1017 7.76001 12.1017H1.96796C1.47597 12.1017 1.02125 11.9596 0.603805 11.6753C0.201268 11.3911 0 10.9797 0 10.4411V2.25035C0 1.71178 0.201268 1.30037 0.603805 1.01613C1.02125 0.731884 1.47597 0.589762 1.96796 0.589762H7.71529C8.05819 0.589762 8.35636 0.716924 8.60981 0.971249C8.86326 1.21061 8.98999 1.50234 8.98999 1.84642C8.98999 2.20547 8.86326 2.51216 8.60981 2.76648C8.37127 3.00584 8.0731 3.12553 7.71529 3.12553H3.35447C3.11593 3.15545 2.92212 3.24521 2.77303 3.39481C2.62394 3.54441 2.54194 3.7389 2.52704 3.97826C2.54194 4.24755 2.61649 4.47943 2.75067 4.67391C2.88485 4.8684 3.10102 4.96564 3.3992 4.96564L6.32877 4.98808C6.68658 4.98808 6.98476 5.11524 7.2233 5.36957C7.47675 5.60893 7.60347 5.90813 7.60347 6.26718C7.60347 6.62623 7.47675 6.92543 7.2233 7.1648C6.96985 7.40416 6.67167 7.52384 6.32877 7.52384H3.33211C3.09357 7.55376 2.89976 7.64353 2.75067 7.79313C2.60158 7.94273 2.52704 8.14469 2.52704 8.39902V8.6683C2.52704 8.92263 2.60903 9.13207 2.77303 9.29663C2.93703 9.4612 3.14575 9.54348 3.3992 9.54348H7.76001ZM7.71529 13.8072C8.0731 13.8072 8.37873 13.9418 8.63218 14.2111C8.90053 14.4654 9.03471 14.7721 9.03471 15.1311C9.03471 15.5201 8.90799 15.8417 8.65454 16.0961C8.40109 16.3504 8.08801 16.4776 7.71529 16.4776H1.31943C0.961616 16.4776 0.648531 16.3429 0.380174 16.0736C0.126725 15.8043 0 15.4902 0 15.1311C0 14.7571 0.11927 14.443 0.35781 14.1886C0.611259 13.9343 0.931798 13.8072 1.31943 13.8072H7.71529Z" fill="#212529"/>
<path d="M20.0915 8.28682C20.7028 8.81043 21.1501 9.3864 21.4333 10.0147C21.7166 10.7328 21.8061 11.5407 21.7017 12.4383C21.6271 12.9769 21.4557 13.4855 21.1873 13.9642C20.919 14.443 20.5686 14.8544 20.1363 15.1985C19.1374 16.0213 17.8329 16.4327 16.2227 16.4327C15.4624 16.4327 14.7393 16.3055 14.0535 16.0512C13.3826 15.7969 12.7862 15.4378 12.2644 14.9741C11.7874 14.5402 11.4146 14.0465 11.1463 13.493C10.8779 12.9395 10.7437 12.3859 10.7437 11.8324V11.4285C10.7437 11.0694 10.8705 10.7627 11.1239 10.5084C11.3923 10.2541 11.7054 10.1269 12.0632 10.1269C12.421 10.1269 12.7266 10.2541 12.9801 10.5084C13.2484 10.7627 13.3826 11.0694 13.3826 11.4285V11.8324C13.3826 11.967 13.4348 12.1466 13.5391 12.371C13.6584 12.5954 13.8299 12.8123 14.0535 13.0217C14.292 13.2312 14.5902 13.4107 14.948 13.5603C15.3058 13.7099 15.7307 13.7847 16.2227 13.7847C16.834 13.7847 17.326 13.7174 17.6987 13.5827C18.0714 13.4331 18.3547 13.2686 18.5485 13.0891C18.7572 12.8946 18.8988 12.7076 18.9734 12.5281C19.0479 12.3336 19.0927 12.1914 19.1076 12.1017C19.1523 11.7426 19.1299 11.4285 19.0405 11.1592C18.9659 10.8899 18.8019 10.6431 18.5485 10.4187C18.295 10.1943 17.9447 9.98481 17.4974 9.79032C17.0651 9.58088 16.506 9.37144 15.8202 9.16199C14.7617 8.83287 13.8671 8.4065 13.1366 7.88289C12.5552 7.41912 12.1154 6.91795 11.8172 6.37938C11.4295 5.69121 11.2954 4.92824 11.4146 4.09046C11.4892 3.61173 11.6383 3.16293 11.8619 2.74404C12.1004 2.32515 12.4135 1.95863 12.8012 1.64446C13.6808 0.941328 14.8213 0.589762 16.2227 0.589762C16.8936 0.589762 17.5198 0.701964 18.1012 0.926369C18.6827 1.13581 19.2045 1.4425 19.6666 1.84642C20.0841 2.23539 20.4046 2.67672 20.6283 3.17041C20.8668 3.64914 20.9861 4.13534 20.9861 4.62903C20.9861 4.98808 20.8593 5.29476 20.6059 5.54909C20.3524 5.80341 20.0468 5.93058 19.689 5.93058C19.3163 5.93058 19.0032 5.80341 18.7498 5.54909C18.4963 5.29476 18.3696 4.98808 18.3696 4.62903C18.3696 4.52431 18.3249 4.39715 18.2354 4.24755C18.1609 4.08298 18.0341 3.9259 17.8552 3.7763C17.6763 3.6267 17.4527 3.49953 17.1843 3.39481C16.916 3.27513 16.5954 3.21529 16.2227 3.21529C15.4176 3.21529 14.8287 3.37237 14.456 3.68654C14.292 3.82118 14.1802 3.9633 14.1206 4.1129C14.0759 4.24755 14.046 4.35227 14.0311 4.42707C13.9864 4.71131 14.0386 4.97312 14.1877 5.21248C14.3368 5.43689 14.538 5.64633 14.7915 5.84081C15.0449 6.02034 15.3282 6.17742 15.6413 6.31206C15.9693 6.4467 16.2898 6.55891 16.6029 6.64867C17.1843 6.82819 17.7807 7.04511 18.3919 7.29944C19.0181 7.55376 19.5846 7.88289 20.0915 8.28682Z" fill="#212529"/>
<path d="M33.8858 0.5C34.2436 0.5 34.5492 0.627162 34.8027 0.881487C35.071 1.13581 35.2052 1.44998 35.2052 1.82398C35.2052 2.18303 35.071 2.48971 34.8027 2.74404C34.5492 2.99836 34.2436 3.12553 33.8858 3.12553H31.4258C31.0829 3.14049 30.7847 3.27513 30.5313 3.52945C30.2927 3.76882 30.1735 4.06054 30.1735 4.40463V15.1087C30.1735 15.4677 30.0468 15.7819 29.7933 16.0512C29.5399 16.3055 29.2268 16.4327 28.8541 16.4327C28.4962 16.4327 28.1906 16.3055 27.9372 16.0512C27.6837 15.7819 27.557 15.4677 27.557 15.1087V4.9432H27.5346V4.40463C27.5346 4.06054 27.4154 3.76882 27.1768 3.52945C26.9383 3.27513 26.6476 3.14049 26.3047 3.12553H23.8447C23.472 3.12553 23.1589 2.99836 22.9055 2.74404C22.652 2.48971 22.5253 2.18303 22.5253 1.82398C22.5253 1.44998 22.652 1.13581 22.9055 0.881487C23.1589 0.627162 23.472 0.5 23.8447 0.5H33.8858Z" fill="#212529"/>
<path d="M45.7711 13.852C46.1438 13.852 46.4569 13.9867 46.7103 14.256C46.9638 14.5103 47.0905 14.817 47.0905 15.176C47.0905 15.55 46.9638 15.8642 46.7103 16.1185C46.4569 16.3728 46.1438 16.5 45.7711 16.5H38.749C38.1229 16.5 37.6085 16.3354 37.206 16.0063C36.8035 15.6622 36.6022 15.2359 36.6022 14.7272V2.36255C36.6022 1.8539 36.8035 1.43502 37.206 1.10589C37.6085 0.761805 38.1229 0.589762 38.749 0.589762H45.704C46.0767 0.589762 46.3898 0.716924 46.6432 0.971249C46.8967 1.22557 47.0234 1.53226 47.0234 1.89131C47.0234 2.26531 46.8967 2.57948 46.6432 2.8338C46.3898 3.08813 46.0767 3.21529 45.704 3.21529H40.4263C40.0834 3.24521 39.7927 3.37985 39.5541 3.61922C39.3305 3.85858 39.2187 4.1503 39.2187 4.49439V5.52665C39.2187 5.88569 39.3454 6.19238 39.5989 6.4467C39.8523 6.68607 40.1505 6.80575 40.4934 6.80575H40.6052L40.6276 6.82819H44.0491C44.4218 6.82819 44.7349 6.95535 44.9884 7.20968C45.2418 7.464 45.3685 7.77817 45.3685 8.15217C45.3685 8.51122 45.2418 8.81791 44.9884 9.07223C44.7349 9.32656 44.4218 9.45372 44.0491 9.45372H40.4039C40.061 9.48364 39.7778 9.61828 39.5541 9.85764C39.3305 10.097 39.2187 10.3887 39.2187 10.7328V12.5729C39.2187 12.932 39.3454 13.2387 39.5989 13.493C39.8523 13.7324 40.1505 13.852 40.4934 13.852H45.7711Z" fill="#212529"/>
<path d="M69.9205 14.6374C70.0398 14.9815 70.0248 15.3181 69.8758 15.6473C69.7267 15.9764 69.4807 16.2008 69.1378 16.3205C69.0632 16.3504 68.9887 16.3728 68.9141 16.3878C68.8396 16.4028 68.7651 16.4102 68.6905 16.4102C68.4072 16.4102 68.1538 16.3354 67.9302 16.1858C67.7065 16.0213 67.5425 15.8043 67.4382 15.5351L67.0356 14.413C66.9164 14.1138 66.6927 13.852 66.3647 13.6276C66.0368 13.4032 65.7013 13.291 65.3584 13.291H62.4288C62.071 13.291 61.7281 13.4032 61.4001 13.6276C61.0721 13.852 60.856 14.1138 60.7516 14.413L60.3267 15.5351C60.2223 15.8343 60.0509 16.0587 59.8123 16.2083C59.5738 16.3429 59.3054 16.4102 59.0073 16.4102H51.0013C50.3751 16.4102 49.8533 16.2457 49.4358 15.9165C49.0333 15.5725 48.832 15.1461 48.832 14.6374V1.80154C48.832 1.4425 48.9588 1.13581 49.2122 0.881487C49.4657 0.627162 49.7787 0.5 50.1515 0.5C50.5093 0.5 50.8149 0.627162 51.0683 0.881487C51.3218 1.13581 51.4485 1.4425 51.4485 1.80154V12.5056C51.4485 12.8497 51.5678 13.1414 51.8063 13.3808C52.0449 13.6202 52.3356 13.7473 52.6785 13.7623H57.0169C57.1362 13.7623 57.2704 13.7473 57.4195 13.7174C57.5686 13.6725 57.7177 13.6127 57.8667 13.5379C58.0158 13.4481 58.15 13.3284 58.2693 13.1788C58.4035 13.0292 58.5153 12.8422 58.6047 12.6178L62.6525 1.37518C62.7419 1.10589 62.8985 0.896448 63.1221 0.746845C63.3457 0.582282 63.5992 0.5 63.8824 0.5C64.1657 0.5 64.4192 0.582282 64.6428 0.746845C64.8664 0.896448 65.0229 1.09841 65.1124 1.35274L69.9205 14.6374ZM64.4192 10.6655C64.7621 10.6655 65.0155 10.5533 65.1795 10.3289C65.3435 10.0895 65.3659 9.7978 65.2466 9.45372L64.3297 6.89551C64.2253 6.55143 64.0837 6.37938 63.9048 6.37938C63.7408 6.37938 63.5917 6.55143 63.4575 6.89551L62.5183 9.45372C62.399 9.7978 62.4214 10.0895 62.5854 10.3289C62.7643 10.5533 63.0252 10.6655 63.3681 10.6655H64.4192Z" fill="#212529"/>
</svg>
