<svg width="54" height="54" viewBox="0 0 54 54" fill="none" xmlns="http://www.w3.org/2000/svg">
<path d="M18.5625 43.875H8.31094C8.10595 43.875 7.90297 43.8346 7.71359 43.7562C7.52421 43.6777 7.35213 43.5628 7.20719 43.4178C7.06224 43.2729 6.94726 43.1008 6.86882 42.9114C6.79037 42.722 6.75 42.519 6.75 42.3141V40.5" stroke="#6C757D" stroke-width="2" stroke-linecap="round" stroke-linejoin="round"/>
<path d="M33.75 43.875H27" stroke="#6C757D" stroke-width="2" stroke-linecap="round" stroke-linejoin="round"/>
<path d="M47.25 32.0625V42.3773C47.25 42.7745 47.0922 43.1555 46.8113 43.4363C46.5305 43.7172 46.1495 43.875 45.7523 43.875H42.1875" stroke="#6C757D" stroke-width="2" stroke-linecap="round" stroke-linejoin="round"/>
<path d="M35.4375 16.875H45.5625C46.0101 16.875 46.4393 17.0528 46.7557 17.3693C47.0722 17.6857 47.25 18.1149 47.25 18.5625V23.625" stroke="#6C757D" stroke-width="2" stroke-linecap="round" stroke-linejoin="round"/>
<path d="M6.75 16.875V11.8125C6.75 11.365 6.92779 10.9357 7.24426 10.6193C7.56073 10.3028 7.98995 10.125 8.4375 10.125H19.5539C19.773 10.1242 19.9902 10.1667 20.1928 10.2499C20.3955 10.3332 20.5798 10.4556 20.7352 10.6102L27 16.875H6.75Z" stroke="#6C757D" stroke-width="2" stroke-linecap="round" stroke-linejoin="round"/>
<path d="M6.75 25.3125V32.0625" stroke="#6C757D" stroke-width="2" stroke-linecap="round" stroke-linejoin="round"/>
</svg>
