<svg width="32" height="32" viewBox="0 0 32 32" fill="none" xmlns="http://www.w3.org/2000/svg">
<path d="M11 20.5C14.5899 20.5 17.5 17.5899 17.5 14C17.5 10.4101 14.5899 7.5 11 7.5C7.41015 7.5 4.5 10.4101 4.5 14C4.5 17.5899 7.41015 20.5 11 20.5Z" stroke="current" stroke-width="2" stroke-miterlimit="10"/>
<path d="M19.425 7.7375C19.9996 7.58166 20.5922 7.50181 21.1875 7.5C22.9115 7.5 24.5648 8.18482 25.7837 9.40381C27.0027 10.6228 27.6875 12.2761 27.6875 14C27.6875 15.7239 27.0027 17.3772 25.7837 18.5962C24.5648 19.8152 22.9115 20.5 21.1875 20.5" stroke="current" stroke-width="2" stroke-linecap="round" stroke-linejoin="round"/>
<path d="M2 25.175C3.01493 23.7307 4.36255 22.5519 5.92901 21.7381C7.49547 20.9243 9.23477 20.4995 11 20.4995C12.7652 20.4995 14.5045 20.9243 16.071 21.7381C17.6375 22.5519 18.9851 23.7307 20 25.175" stroke="current" stroke-width="2" stroke-linecap="round" stroke-linejoin="round"/>
<path d="M21.1875 20.5C22.9529 20.4989 24.6925 20.9232 26.2592 21.737C27.8258 22.5508 29.1733 23.7301 30.1875 25.175" stroke="current" stroke-width="2" stroke-linecap="round" stroke-linejoin="round"/>
</svg>
