<svg width="26" height="26" viewBox="0 0 32 32" fill="none" xmlns="http://www.w3.org/2000/svg">
<path d="M7.02502 13.0001C7.02335 11.8146 7.25625 10.6405 7.7103 9.54534C8.16435 8.45021 8.83058 7.45573 9.67061 6.61918C10.5106 5.78263 11.5079 5.12054 12.6049 4.67105C13.7019 4.22156 14.877 3.99354 16.0625 4.00014C21.0125 4.03764 24.975 8.15014 24.975 13.1126V14.0001C24.975 18.4751 25.9125 21.0751 26.7375 22.5001C26.8251 22.6519 26.8713 22.824 26.8715 22.9993C26.8716 23.1745 26.8258 23.3467 26.7384 23.4986C26.651 23.6505 26.5253 23.7768 26.3738 23.8648C26.2223 23.9529 26.0503 23.9995 25.875 24.0001H6.12502C5.94978 23.9995 5.77778 23.9529 5.62625 23.8648C5.47472 23.7768 5.34899 23.6505 5.26163 23.4986C5.17428 23.3467 5.12839 23.1745 5.12854 22.9993C5.1287 22.824 5.1749 22.6519 5.26252 22.5001C6.08752 21.0751 7.02502 18.4751 7.02502 14.0001V13.0001Z" stroke="current" stroke-width="2" stroke-linecap="round" stroke-linejoin="round"/>
<path d="M12 24V25C12 26.0609 12.4214 27.0783 13.1716 27.8284C13.9217 28.5786 14.9391 29 16 29C17.0609 29 18.0783 28.5786 18.8284 27.8284C19.5786 27.0783 20 26.0609 20 25V24" stroke="current" stroke-width="2" stroke-linecap="round" stroke-linejoin="round"/>
</svg>
