<svg width="32" height="32" viewBox="0 0 32 32" fill="none" xmlns="http://www.w3.org/2000/svg">
<path d="M24.9496 5.25293H20.4496C19.8973 5.25293 19.4496 5.70064 19.4496 6.25293V26.2529C19.4496 26.8052 19.8973 27.2529 20.4496 27.2529H24.9496C25.5019 27.2529 25.9496 26.8052 25.9496 26.2529V6.25293C25.9496 5.70064 25.5019 5.25293 24.9496 5.25293Z" stroke="current" stroke-width="2" stroke-linecap="round" stroke-linejoin="round"/>
<path d="M11.4496 5.25293H6.94958C6.3973 5.25293 5.94958 5.70064 5.94958 6.25293V26.2529C5.94958 26.8052 6.3973 27.2529 6.94958 27.2529H11.4496C12.0019 27.2529 12.4496 26.8052 12.4496 26.2529V6.25293C12.4496 5.70064 12.0019 5.25293 11.4496 5.25293Z" stroke="current" stroke-width="2" stroke-linecap="round" stroke-linejoin="round"/>
</svg>
