<svg width="32" height="32" viewBox="0 0 32 32" fill="none" xmlns="http://www.w3.org/2000/svg">
<path d="M28.0873 15.4228L10.0998 4.42282C9.94841 4.32942 9.77481 4.2781 9.59694 4.27417C9.41907 4.27024 9.24337 4.31383 9.08797 4.40044C8.93257 4.48706 8.80309 4.61357 8.71288 4.76692C8.62268 4.92027 8.57503 5.09491 8.57483 5.27282V27.2728C8.57503 27.4507 8.62268 27.6254 8.71288 27.7787C8.80309 27.9321 8.93257 28.0586 9.08797 28.1452C9.24337 28.2318 9.41907 28.2754 9.59694 28.2715C9.77481 28.2675 9.94841 28.2162 10.0998 28.1228L28.0873 17.1228C28.235 17.0355 28.3574 16.9112 28.4424 16.7621C28.5275 16.6131 28.5722 16.4444 28.5722 16.2728C28.5722 16.1012 28.5275 15.9326 28.4424 15.7835C28.3574 15.6345 28.235 15.5102 28.0873 15.4228V15.4228Z" stroke="current" stroke-width="2" stroke-linecap="round" stroke-linejoin="round"/>
</svg>
