<svg width="23" height="27" viewBox="0 0 23 27" fill="none" xmlns="http://www.w3.org/2000/svg">
<path d="M21.0873 12.4228L3.09983 1.42282C2.94841 1.32942 2.77481 1.2781 2.59694 1.27417C2.41907 1.27024 2.24337 1.31383 2.08797 1.40044C1.93257 1.48706 1.80309 1.61357 1.71288 1.76692C1.62268 1.92027 1.57503 2.09491 1.57483 2.27282V24.2728C1.57503 24.4507 1.62268 24.6254 1.71288 24.7787C1.80309 24.9321 1.93257 25.0586 2.08797 25.1452C2.24337 25.2318 2.41907 25.2754 2.59694 25.2715C2.77481 25.2675 2.94841 25.2162 3.09983 25.1228L21.0873 14.1228C21.235 14.0355 21.3574 13.9112 21.4424 13.7621C21.5275 13.6131 21.5722 13.4444 21.5722 13.2728C21.5722 13.1012 21.5275 12.9326 21.4424 12.7835C21.3574 12.6345 21.235 12.5102 21.0873 12.4228V12.4228Z" stroke-width="2" stroke-linecap="round" stroke-linejoin="round"/>
</svg>
