<svg width="32" height="32" viewBox="0 0 32 32" fill="none" xmlns="http://www.w3.org/2000/svg">
<path d="M9.97498 12.4624H3.97498V6.4624" stroke="current" stroke-width="2" stroke-linecap="round" stroke-linejoin="round"/>
<path d="M23.775 8.22481C22.7545 7.20283 21.5425 6.39206 20.2084 5.83888C18.8743 5.28571 17.4442 5.00098 16 5.00098C14.5557 5.00098 13.1256 5.28571 11.7915 5.83888C10.4574 6.39206 9.24547 7.20283 8.22498 8.22481L3.97498 12.4623" stroke="current" stroke-width="2" stroke-linecap="round" stroke-linejoin="round"/>
<path d="M22.025 19.5376H28.025V25.5376" stroke="current" stroke-width="2" stroke-linecap="round" stroke-linejoin="round"/>
<path d="M8.22498 23.7751C9.24547 24.7971 10.4574 25.6078 11.7915 26.161C13.1256 26.7142 14.5557 26.9989 16 26.9989C17.4442 26.9989 18.8743 26.7142 20.2084 26.161C21.5425 25.6078 22.7545 24.7971 23.775 23.7751L28.025 19.5376" stroke="current" stroke-width="2" stroke-linecap="round" stroke-linejoin="round"/>
</svg>
