<svg width="32" height="32" viewBox="0 0 32 32" fill="none" xmlns="http://www.w3.org/2000/svg">
<path d="M16.1885 21.7129C19.5022 21.7129 22.1885 19.0266 22.1885 15.7129C22.1885 12.3992 19.5022 9.71289 16.1885 9.71289C12.8748 9.71289 10.1885 12.3992 10.1885 15.7129C10.1885 19.0266 12.8748 21.7129 16.1885 21.7129Z" stroke="current" stroke-width="2" stroke-linecap="round" stroke-linejoin="round"/>
<path d="M24.8635 9.80019C25.1644 10.231 25.4279 10.6869 25.651 11.1627L28.8885 12.9627C29.2928 14.7733 29.297 16.6503 28.901 18.4627L25.651 20.2627C25.4279 20.7385 25.1644 21.1944 24.8635 21.6252L24.926 25.3377C23.5539 26.588 21.93 27.5299 20.1635 28.1002L16.976 26.1877C16.4517 26.2252 15.9253 26.2252 15.401 26.1877L12.226 28.0877C10.4539 27.5278 8.82463 26.5895 7.45101 25.3377L7.51351 21.6377C7.2151 21.2009 6.95178 20.7411 6.72601 20.2627L3.48851 18.4627C3.08426 16.6521 3.08 14.7751 3.47601 12.9627L6.72601 11.1627C6.94912 10.6869 7.21258 10.231 7.51351 9.80019L7.45101 6.0877C8.82308 4.8374 10.447 3.89545 12.2135 3.3252L15.401 5.2377C15.9253 5.20019 16.4517 5.20019 16.976 5.2377L20.151 3.3377C21.9231 3.89757 23.5524 4.83589 24.926 6.0877L24.8635 9.80019Z" stroke="current" stroke-width="2" stroke-linecap="round" stroke-linejoin="round"/>
</svg>
