<svg width="32" height="32" viewBox="0 0 32 32" fill="none" xmlns="http://www.w3.org/2000/svg">
<path d="M22 7H10C7.61305 7 5.32387 7.94821 3.63604 9.63604C1.94821 11.3239 1 13.6131 1 16C1 18.3869 1.94821 20.6761 3.63604 22.364C5.32387 24.0518 7.61305 25 10 25H22C24.3869 25 26.6761 24.0518 28.364 22.364C30.0518 20.6761 31 18.3869 31 16C31 13.6131 30.0518 11.3239 28.364 9.63604C26.6761 7.94821 24.3869 7 22 7ZM22 21C21.0111 21 20.0444 20.7068 19.2221 20.1573C18.3999 19.6079 17.759 18.827 17.3806 17.9134C17.0022 16.9998 16.9031 15.9945 17.0961 15.0245C17.289 14.0546 17.7652 13.1637 18.4645 12.4645C19.1637 11.7652 20.0546 11.289 21.0245 11.0961C21.9945 10.9031 22.9998 11.0022 23.9134 11.3806C24.827 11.759 25.6079 12.3999 26.1573 13.2221C26.7068 14.0444 27 15.0111 27 16C27 17.3261 26.4732 18.5979 25.5355 19.5355C24.5979 20.4732 23.3261 21 22 21Z" fill="#212529"/>
</svg>
