<svg width="32" height="32" viewBox="0 0 32 32" fill="none" xmlns="http://www.w3.org/2000/svg">
<path d="M27.1792 6.92627H5.1792" stroke="current" stroke-width="2" stroke-linecap="round" stroke-linejoin="round"/>
<path d="M13.1792 12.9263V20.9263" stroke="current" stroke-width="2" stroke-linecap="round" stroke-linejoin="round"/>
<path d="M19.1792 12.9263V20.9263" stroke="current" stroke-width="2" stroke-linecap="round" stroke-linejoin="round"/>
<path d="M25.1792 6.92627V25.9263C25.1792 26.1915 25.0738 26.4458 24.8863 26.6334C24.6988 26.8209 24.4444 26.9263 24.1792 26.9263H8.1792C7.91398 26.9263 7.65963 26.8209 7.47209 26.6334C7.28456 26.4458 7.1792 26.1915 7.1792 25.9263V6.92627" stroke="current" stroke-width="2" stroke-linecap="round" stroke-linejoin="round"/>
<path d="M21.1792 6.92627V4.92627C21.1792 4.39584 20.9685 3.88713 20.5934 3.51206C20.2183 3.13698 19.7096 2.92627 19.1792 2.92627H13.1792C12.6488 2.92627 12.1401 3.13698 11.765 3.51206C11.3899 3.88713 11.1792 4.39584 11.1792 4.92627V6.92627" stroke="current" stroke-width="2" stroke-linecap="round" stroke-linejoin="round"/>
</svg>
