<svg width="194" height="61" viewBox="0 0 194 61" fill="none" xmlns="http://www.w3.org/2000/svg">
<path d="M77.4677 7.48025V32.2528C77.4677 32.4427 77.5051 32.6307 77.5777 32.8061C77.6504 32.9816 77.7569 33.141 77.8912 33.2753C78.0255 33.4096 78.1849 33.5161 78.3603 33.5887C78.5358 33.6614 78.7238 33.6988 78.9137 33.6988H81.5562C81.9398 33.6988 82.3076 33.5465 82.5788 33.2753C82.85 33.0041 83.0023 32.6363 83.0023 32.2528V11.5947H88.537V32.2528C88.537 32.4427 88.5744 32.6307 88.647 32.8061C88.7197 32.9816 88.8262 33.141 88.9605 33.2753C89.0948 33.4096 89.2542 33.5161 89.4296 33.5887C89.6051 33.6614 89.7931 33.6988 89.983 33.6988H92.6169C93.0012 33.6988 93.3699 33.5468 93.6425 33.2758C93.9151 33.0049 94.0693 32.6371 94.0716 32.2528V11.5947H99.5976V32.2528C99.5999 32.6371 99.7542 33.0049 100.027 33.2758C100.299 33.5468 100.668 33.6988 101.052 33.6988H103.686C104.07 33.6988 104.438 33.5465 104.709 33.2753C104.98 33.0041 105.132 32.6363 105.132 32.2528V7.48025C105.132 7.09673 104.98 6.72891 104.709 6.45772C104.438 6.18653 104.07 6.03418 103.686 6.03418H78.9137C78.7238 6.03418 78.5358 6.07158 78.3603 6.14426C78.1849 6.21693 78.0255 6.32344 77.8912 6.45772C77.7569 6.592 77.6504 6.75142 77.5777 6.92686C77.5051 7.10231 77.4677 7.29035 77.4677 7.48025Z" fill="#FF5733"/>
<path d="M138.332 22.6297H143.866V17.1037H138.332V7.48048C138.332 7.28838 138.294 7.09821 138.219 6.92106C138.145 6.74391 138.036 6.58334 137.899 6.44871C137.762 6.31409 137.6 6.20812 137.421 6.13698C137.243 6.06585 137.052 6.03098 136.86 6.03441H134.278C133.894 6.03441 133.526 6.18676 133.255 6.45795C132.984 6.72914 132.832 7.09696 132.832 7.48048V32.253C132.832 32.6365 132.984 33.0043 133.255 33.2755C133.526 33.5467 133.894 33.699 134.278 33.699H136.86C137.243 33.699 137.611 33.5467 137.882 33.2755C138.154 33.0043 138.306 32.6365 138.306 32.253L138.332 22.6297Z" fill="#FF5733"/>
<path d="M37.2877 17.1035H34.6452C33.8465 17.1035 33.1991 17.7509 33.1991 18.5496V32.2614C33.1991 33.06 33.8465 33.7075 34.6452 33.7075H37.2877C38.0863 33.7075 38.7337 33.06 38.7337 32.2614V18.5496C38.7337 17.7509 38.0863 17.1035 37.2877 17.1035Z" fill="#FF5733"/>
<path d="M171.539 32.2528V29.6102C171.537 29.2259 171.383 28.8581 171.11 28.5872C170.838 28.3162 170.469 28.1642 170.085 28.1642H160.47V22.6295H170.085C170.277 22.6295 170.468 22.5913 170.645 22.5172C170.823 22.443 170.984 22.3343 171.119 22.1974C171.255 22.0605 171.362 21.8981 171.434 21.7196C171.506 21.5411 171.542 21.3501 171.539 21.1576V18.5754C171.537 18.1911 171.383 17.8233 171.11 17.5523C170.838 17.2814 170.469 17.1293 170.085 17.1293H160.47V11.5688H170.085C170.469 11.5688 170.838 11.4168 171.11 11.1458C171.383 10.8749 171.537 10.5071 171.539 10.1228V7.48025C171.537 7.09594 171.383 6.72814 171.11 6.4572C170.838 6.18625 170.469 6.03417 170.085 6.03418H156.381C156.192 6.03418 156.004 6.07158 155.828 6.14426C155.653 6.21693 155.493 6.32344 155.359 6.45772C155.225 6.592 155.118 6.75142 155.046 6.92686C154.973 7.10231 154.935 7.29035 154.935 7.48025V32.2528C154.935 32.4427 154.973 32.6307 155.046 32.8061C155.118 32.9816 155.225 33.141 155.359 33.2753C155.493 33.4096 155.653 33.5161 155.828 33.5887C156.004 33.6614 156.192 33.6988 156.381 33.6988H170.085C170.469 33.6988 170.838 33.5468 171.11 33.2758C171.383 33.0049 171.537 32.6371 171.539 32.2528Z" fill="#FF5733"/>
<path d="M143.868 17.1035H147.956C148.34 17.1012 148.708 16.9469 148.979 16.6744C149.25 16.4018 149.402 16.0331 149.402 15.6488V7.48025C149.402 7.09673 149.25 6.72891 148.979 6.45772C148.707 6.18653 148.34 6.03418 147.956 6.03418H145.314C144.93 6.03418 144.562 6.18653 144.291 6.45772C144.02 6.72891 143.868 7.09673 143.868 7.48025V17.1035Z" fill="#FF5733"/>
<path d="M123.182 33.6988H125.825C126.208 33.6988 126.576 33.5465 126.847 33.2753C127.118 33.0041 127.271 32.6363 127.271 32.2528V7.48025C127.271 7.09673 127.118 6.72891 126.847 6.45772C126.576 6.18653 126.208 6.03418 125.825 6.03418H112.113C111.729 6.03418 111.362 6.18653 111.09 6.45772C110.819 6.72891 110.667 7.09673 110.667 7.48025V32.2528C110.667 32.6363 110.819 33.0041 111.09 33.2753C111.362 33.5465 111.729 33.6988 112.113 33.6988H114.755C114.945 33.6988 115.133 33.6614 115.309 33.5887C115.484 33.5161 115.644 33.4096 115.778 33.2753C115.912 33.141 116.019 32.9816 116.091 32.8061C116.164 32.6307 116.202 32.4427 116.202 32.2528V22.6295H121.736V32.2528C121.736 32.6363 121.889 33.0041 122.16 33.2753C122.431 33.5465 122.799 33.6988 123.182 33.6988ZM121.736 17.1035H116.202V11.5688H121.736V17.1035Z" fill="#FF5733"/>
<path d="M189.581 33.6992H192.223C192.607 33.6992 192.975 33.5468 193.246 33.2756C193.517 33.0044 193.669 32.6366 193.669 32.2531V24.0846C193.669 23.7002 193.517 23.3315 193.246 23.059C192.975 22.7864 192.608 22.6322 192.223 22.6299H188.135V32.2531C188.135 32.6366 188.287 33.0044 188.558 33.2756C188.829 33.5468 189.197 33.6992 189.581 33.6992Z" fill="#FF5733"/>
<path d="M147.956 22.6299H143.868V32.2531C143.868 32.6366 144.02 33.0044 144.291 33.2756C144.562 33.5468 144.93 33.6992 145.314 33.6992H147.956C148.34 33.6992 148.707 33.5468 148.979 33.2756C149.25 33.0044 149.402 32.6366 149.402 32.2531V24.0846C149.402 23.7002 149.25 23.3315 148.979 23.059C148.708 22.7864 148.34 22.6322 147.956 22.6299Z" fill="#FF5733"/>
<path d="M37.2877 6.03418H34.6452C33.8465 6.03418 33.1991 6.68161 33.1991 7.48025V10.1228C33.1991 10.9214 33.8465 11.5688 34.6452 11.5688H37.2877C38.0863 11.5688 38.7337 10.9214 38.7337 10.1228V7.48025C38.7337 6.68161 38.0863 6.03418 37.2877 6.03418Z" fill="#FF5733"/>
<path d="M60.8638 11.5688H70.487C70.8705 11.5688 71.2383 11.4165 71.5095 11.1453C71.7807 10.8741 71.9331 10.5063 71.9331 10.1228V7.48025C71.9331 7.09673 71.7807 6.72891 71.5095 6.45772C71.2383 6.18653 70.8705 6.03418 70.487 6.03418H45.7145C45.331 6.03418 44.9632 6.18653 44.692 6.45772C44.4208 6.72891 44.2684 7.09673 44.2684 7.48025V10.1228C44.2684 10.5063 44.4208 10.8741 44.692 11.1453C44.9632 11.4165 45.331 11.5688 45.7145 11.5688H55.3377V32.2269C55.3342 32.4212 55.3699 32.6142 55.4426 32.7943C55.5154 32.9745 55.6237 33.1381 55.761 33.2755C55.8984 33.4129 56.0621 33.5212 56.2422 33.5939C56.4224 33.6666 56.6154 33.7023 56.8096 33.6988H59.3919C59.7754 33.6988 60.1432 33.5465 60.4144 33.2753C60.6856 33.0041 60.838 32.6363 60.838 32.2528L60.8638 11.5688Z" fill="#FF5733"/>
<path d="M23.4556 0.5H1.44607C1.06255 0.5 0.694734 0.652353 0.423543 0.923543C0.152353 1.19473 0 1.56255 0 1.94607L0 4.58858C0 4.9721 0.152353 5.33992 0.423543 5.61111C0.694734 5.8823 1.06255 6.03465 1.44607 6.03465H5.53465V28.1646H1.44607C1.06255 28.1646 0.694734 28.317 0.423543 28.5882C0.152353 28.8594 0 29.2272 0 29.6107L0 32.2532C0 32.6367 0.152353 33.0046 0.423543 33.2757C0.694734 33.5469 1.06255 33.6993 1.44607 33.6993H26.2186C26.6021 33.6993 26.9699 33.5469 27.2411 33.2757C27.5123 33.0046 27.6646 32.6367 27.6646 32.2532V11.0615C27.6646 10.6771 27.5126 10.3084 27.2416 10.0359C26.9707 9.76332 26.6029 9.60905 26.2186 9.60678H24.9016V1.94607C24.9016 1.56255 24.7493 1.19473 24.4781 0.923543C24.2069 0.652353 23.8391 0.5 23.4556 0.5V0.5ZM19.367 6.03465V10.4245L11.0693 18.7222V6.03465H19.367ZM11.0693 28.1646V26.5464L22.13 15.4771V28.1646H11.0693Z" fill="#FF5733"/>
<path d="M182.601 22.6295H188.136V17.1035H182.601V11.5688H188.136V17.1035H192.225C192.609 17.1012 192.977 16.9469 193.248 16.6744C193.519 16.4018 193.671 16.0331 193.671 15.6488V7.48025C193.671 7.09673 193.518 6.72891 193.247 6.45772C192.976 6.18653 192.608 6.03418 192.225 6.03418H178.521C178.137 6.03417 177.768 6.18625 177.496 6.4572C177.223 6.72814 177.069 7.09594 177.067 7.48025V32.2528C177.069 32.6371 177.223 33.0049 177.496 33.2758C177.768 33.5468 178.137 33.6988 178.521 33.6988H181.155C181.539 33.6988 181.907 33.5465 182.178 33.2753C182.449 33.0041 182.601 32.6363 182.601 32.2528V22.6295Z" fill="#FF5733"/>
<path d="M0.000488281 60.4999V39.8418H4.2107V56.3683H8.42091V39.8418H12.6311V56.3683H16.8413V39.8418H21.0515V60.4999H0.000488281Z" fill="#00FF97"/>
<path d="M29.472 52.2367V56.3683H37.8924V60.4999H25.2618V39.8418H37.8924V43.9734H29.472V48.105H37.8924V52.2367H29.472Z" fill="#00FF97"/>
<path d="M46.3128 48.105L50.1722 48.0913L50.523 47.7607V43.9734H46.3128V48.105ZM50.523 56.3683V52.581L50.1722 52.2367H46.3128V56.3683H50.523ZM50.523 51.8924L50.8739 52.2367H54.7332V60.4999H42.1026V39.8418H54.7332V48.105H50.8739L50.523 48.4493V51.8924Z" fill="#00FF97"/>
<path d="M71.5741 52.2367V39.8418H84.2047V43.9734H75.7843V48.105H84.2047V60.4999H71.5741V56.3683H79.9945V52.2367H71.5741Z" fill="#00FF97"/>
<path d="M101.046 56.3683V60.4999H88.4149V39.8418H101.046V43.9734H92.6251V56.3683H101.046Z" fill="#00FF97"/>
<path d="M109.466 48.105L113.325 48.0913L113.676 47.7607V43.9734H109.466V48.105ZM113.676 52.581L113.325 52.2367H109.466V60.4999H105.256V39.8418H117.886V48.105H114.027L113.676 48.4493V51.8924L114.027 52.2367H117.886V60.4999H113.676V52.581Z" fill="#00FF97"/>
<path d="M122.097 60.4999V39.8418H134.727V60.4999H130.517V52.2367H126.307V60.4999H122.097ZM126.307 48.105H130.517V43.9734H126.307V48.105Z" fill="#00FF97"/>
<path d="M138.937 60.4999V39.8418H151.568V52.2367H143.148V60.4999H138.937ZM143.148 48.105H147.358V43.9734H143.148V48.105Z" fill="#00FF97"/>
<path d="M159.989 60.4999H155.778V39.8418H159.989V60.4999Z" fill="#00FF97"/>
<path d="M172.619 43.9734H168.409V60.4999H164.199V39.8418H176.829V60.4999H172.619V43.9734Z" fill="#00FF97"/>
<path d="M193.67 60.4999H181.04V39.8418H193.67V43.9734H185.25V56.3683H189.46V48.105H193.67V60.4999Z" fill="#00FF97"/>
</svg>
